<?xml version="1.0" encoding="utf-8"?>
<!-- Generator: Adobe Illustrator 18.1.0, SVG Export Plug-In . SVG Version: 6.00 Build 0)  -->
<svg version="1.1" id="Layer_1" xmlns="http://www.w3.org/2000/svg" xmlns:xlink="http://www.w3.org/1999/xlink" x="0px" y="0px"
	 viewBox="0 0 180 32" enable-background="new 0 0 180 32" xml:space="preserve">
<path fill="#149E4C" d="M4.3,12.3c-1.5-1.5-1.5-3.9,0-5.4c1.5-1.5,3.9-1.5,5.4,0c1.5,1.5,1.5,3.9,0,5.4C8.2,13.8,5.8,13.8,4.3,12.3z
	"/>
<path fill="#45AA4B" d="M26.5,23.2c-3.1-3.4-4.7-6.6-4.7-9.5c0-3.5,3-6.3,6.6-6.3c3.3,0,5,2.2,5.4,2.9c0.5-0.7,2.2-2.8,5.5-2.8
	c0.4,0,0.8,0,1.1,0.1c0-4.2-3.5-7.5-7.8-7.6c-3.9,0-6,2.6-6.6,3.3C25.5,2.7,23.5,0,19.6,0c-4.3,0-7.9,3.4-7.9,7.6
	c0,3.4,1.9,7.2,5.6,11.4c2.3,2.5,7.2,6.2,8.6,6.2c0.4,0,1.1-0.3,1.9-0.7C27.3,24,26.8,23.6,26.5,23.2z"/>
<path fill="#56B96F" d="M26.5,23.2c-3.1-3.4-4.7-6.6-4.7-9.5c0-1.6,0.6-3,1.6-4.1c-0.9-0.6-2.2-1-3.7-1c-4,0-7.3,3.1-7.4,7
	c0,3.2,1.7,6.7,5.2,10.5c2.1,2.3,6.7,5.8,8,5.8c1.1,0,4.3-2.2,6.6-4.2C30.5,26.8,27.9,24.8,26.5,23.2z"/>
<g>
	<g>
		<path fill="#595959" d="M45.1,22.9c-1.1,1.2-2.8,1.9-5.1,1.9c-4,0-6.2-2.7-6.2-5.9c0-3.2,2.1-5.9,6.2-5.9c3.9,0,5.9,2.5,5.9,5.8
			c0,0.4,0,0.8-0.1,1.2h-8.2c0.3,1.4,1.4,2,2.8,2c1,0,2.2-0.4,3.1-1L45.1,22.9z M42.5,17.9c0-0.2,0-0.4-0.1-0.5
			c-0.2-1-1-1.5-2.3-1.5c-1.5,0-2.3,0.9-2.5,1.9l0,0.1H42.5z"/>
		<path fill="#595959" d="M50.5,24.6l-4.6-11.3h3.9l2.6,7.4l2.6-7.4h3.9l-4.6,11.3H50.5z"/>
		<path fill="#595959" d="M70.2,22.9c-1.1,1.2-2.8,1.9-5.1,1.9c-4,0-6.2-2.7-6.2-5.9c0-3.2,2.1-5.9,6.2-5.9c3.9,0,5.9,2.5,5.9,5.8
			c0,0.4,0,0.8-0.1,1.2h-8.2c0.3,1.4,1.4,2,2.8,2c1,0,2.2-0.4,3.1-1L70.2,22.9z M67.6,17.9c0-0.2,0-0.4-0.1-0.5
			c-0.2-1-1-1.5-2.3-1.5c-1.5,0-2.3,0.9-2.5,1.9l0,0.1H67.6z"/>
		<path fill="#595959" d="M79.3,16h-0.7c-0.6,0-1.5,0.2-2.3,1.3v7.2h-3.8V13.3h3.3l0.2,1.5c0.8-1,1.8-1.7,3.2-1.8l0.1,0V16z"/>
		<path fill="#595959" d="M87.5,26.6c-0.6,1.6-1.6,2.5-2.6,3c-1.1,0.5-2.4,0.6-3.8,0.6v-2.8c1.2,0,1.9-0.1,2.5-0.4
			c0.5-0.3,0.8-0.8,1.1-1.5l0.3-0.9h-0.4L80,13.3h3.9l2.6,7.2l2.6-7.2h3.9L87.5,26.6z"/>
		<path fill="#595959" d="M102.1,24.6l-0.2-1.3c-0.8,1-2.3,1.6-3.8,1.6c-2.7,0-5.3-1.7-5.3-5.9c0-3.9,2.6-5.9,5.4-5.9
			c1.2,0,2.3,0.4,3.4,1.3V8.6h3.8v16H102.1z M101.7,17.4c-0.6-1-1.4-1.4-2.4-1.4c-1.6,0-2.6,1-2.6,2.9c0,1.9,1,2.9,2.6,2.9
			c1,0,1.8-0.4,2.3-1.4V17.4z"/>
		<path fill="#595959" d="M107.6,14.3c1.5-0.8,3.4-1.3,5.2-1.3c2.9,0,5.5,1.3,5.5,4.4v7.2h-3.3l-0.2-1.3c-0.9,1.1-2.2,1.6-3.6,1.6
			c-2.1,0-4.2-1.4-4.2-3.9c0-2.7,2.4-3.9,4.9-3.9c0.9,0,1.9,0.2,2.7,0.5l0-0.3c0-1.2-1.1-1.6-2.4-1.6c-1.3,0-2.8,0.5-3.6,0.9
			L107.6,14.3z M114.5,19.9c-0.5-0.3-1.3-0.5-2-0.5c-1.1,0-2,0.4-2,1.3c0,0.9,0.9,1.3,1.8,1.3c0.8,0,1.6-0.2,2.2-0.9V19.9z"/>
		<path fill="#595959" d="M126.3,26.6c-0.6,1.6-1.6,2.5-2.6,3c-1.1,0.5-2.4,0.6-3.8,0.6v-2.8c1.2,0,1.9-0.1,2.5-0.4
			c0.5-0.3,0.8-0.8,1.1-1.5l0.3-0.9h-0.4l-4.6-11.3h3.9l2.6,7.2l2.6-7.2h3.9L126.3,26.6z"/>
		<path fill="#595959" d="M136.5,14.5c0.9-0.9,1.9-1.5,3.3-1.5c2.1,0,4.4,1.3,4.4,4.4v7.2h-3.8v-6.4c0-1.6-0.8-2.2-1.8-2.2
			c-0.6,0-1.2,0.1-2.1,1.4v7.2h-3.8v-16h3.8V14.5z"/>
		<path fill="#595959" d="M156.9,22.9c-1.1,1.2-2.8,1.9-5.1,1.9c-4,0-6.2-2.7-6.2-5.9c0-3.2,2.1-5.9,6.2-5.9c3.9,0,5.9,2.5,5.9,5.8
			c0,0.4,0,0.8-0.1,1.2h-8.2c0.3,1.4,1.4,2,2.8,2c1,0,2.2-0.4,3.1-1L156.9,22.9z M154.3,17.9c0-0.2,0-0.4-0.1-0.5
			c-0.2-1-1-1.5-2.3-1.5c-1.5,0-2.3,0.9-2.5,1.9l0,0.1H154.3z"/>
		<path fill="#595959" d="M166.1,16h-0.7c-0.6,0-1.5,0.2-2.3,1.3v7.2h-3.8V13.3h3.3l0.2,1.5c0.8-1,1.8-1.7,3.2-1.8l0.1,0V16z"/>
		<path fill="#595959" d="M179.5,18.9c0,3.2-2.2,5.9-6.5,5.9c-4.2,0-6.5-2.7-6.5-5.9c0-3.2,2.2-5.9,6.5-5.9
			C177.2,13,179.5,15.6,179.5,18.9z M173,16c-1.6,0-2.7,1-2.7,2.9c0,1.9,1.1,2.9,2.7,2.9c1.6,0,2.7-1,2.7-2.9
			C175.7,17,174.6,16,173,16L173,16z"/>
	</g>
</g>
<path fill="#FFFFFF" d="M33.9,10.4c0.2-0.2,0.4-0.6,0.9-1C34,9,33.2,8.8,32.3,8.8C33.1,9.4,33.6,10.1,33.9,10.4z"/>
<g>
	<path fill="#FFFFFF" d="M21.8,13.8L21.8,13.8C21.8,13.8,21.8,13.8,21.8,13.8L21.8,13.8C21.8,13.8,21.8,13.8,21.8,13.8 M21.8,13.8
		L21.8,13.8C21.8,13.8,21.8,13.8,21.8,13.8L21.8,13.8C21.8,13.8,21.8,13.8,21.8,13.8 M21.8,13.8L21.8,13.8
		C21.8,13.8,21.8,13.8,21.8,13.8L21.8,13.8C21.8,13.8,21.8,13.8,21.8,13.8 M21.8,13.8L21.8,13.8C21.8,13.8,21.8,13.8,21.8,13.8
		L21.8,13.8C21.8,13.8,21.8,13.8,21.8,13.8 M23.5,9.7c-1,1.1-1.6,2.5-1.6,4.1l0,0C21.9,12.2,22.5,10.8,23.5,9.7L23.5,9.7"/>
	<path fill="#84C77C" d="M4.7,19.7c-0.7,0-1.4,0.3-1.9,0.8C2.3,21,2,21.7,2,22.3s0.3,1.4,0.8,1.9C3.3,24.8,4,25,4.7,25
		s1.4-0.3,1.9-0.8c0.5-0.5,0.8-1.2,0.8-1.9S7.1,21,6.6,20.4C6.1,19.9,5.4,19.7,4.7,19.7"/>
	<path fill="#56B96F" d="M1.5,1.8c-0.4,0-0.8,0.1-1.1,0.4C0.1,2.5,0,2.9,0,3.3c0,0.4,0.2,0.8,0.5,1.1c0.3,0.3,0.7,0.5,1.1,0.5
		c0.4,0,0.8-0.1,1.1-0.4C3,4.1,3.1,3.7,3.1,3.4c0-0.4-0.2-0.8-0.5-1.1C2.3,1.9,1.9,1.8,1.5,1.8"/>
	<path fill="#84C77C" d="M11.8,6.2c-0.7,0.2-1.4,0.5-2,0.9c1.4,1.5,1.3,3.8-0.1,5.3C8.9,13,7.9,13.4,7,13.4c-0.3,0-0.5,0-0.8-0.1
		c0,0,0,0.1,0,0.1c0,1.9,0.7,3.8,2.2,5.3c1.5,1.5,3.4,2.2,5.3,2.2c0,0,0,0,0.1,0c-0.9-1.8-1.4-3.5-1.4-5.2c0,0,0-0.1,0-0.1
		c0-1,0.2-1.9,0.6-2.7c-0.9-1.8-1.4-3.6-1.4-5.3c0,0,0-0.1,0-0.1C11.6,7.1,11.7,6.6,11.8,6.2"/>
	<path fill="#009A4C" d="M9.8,7L9.8,7C9.3,7.3,8.8,7.7,8.4,8.1C7,9.6,6.2,11.4,6.2,13.3c0.3,0.1,0.5,0.1,0.8,0.1
		c1,0,1.9-0.4,2.7-1.1C11.1,10.8,11.2,8.5,9.8,7"/>
	<path fill="#45AA4B" d="M26.5,23.2c0.3,0.4,0.8,0.8,1.2,1.2c0,0,0,0,0,0C27.3,24,26.8,23.6,26.5,23.2"/>
	<path fill="#00A34D" d="M13.7,5.9c-0.7,0-1.3,0.1-2,0.3c-0.1,0.5-0.1,0.9-0.1,1.4c0,0,0,0.1,0,0.1c0,1.7,0.5,3.4,1.4,5.3
		c1.1-2.5,3.6-4.2,6.6-4.3c-0.2-0.2-0.3-0.4-0.5-0.5C17.6,6.6,15.7,5.9,13.7,5.9"/>
	<path fill="#56B96F" d="M33.9,10.4C33.9,10.4,33.9,10.4,33.9,10.4C33.9,10.4,33.9,10.4,33.9,10.4 M33.9,10.4
		C33.9,10.4,33.9,10.4,33.9,10.4C33.9,10.4,33.9,10.4,33.9,10.4 M34.7,9.4c-0.4,0.4-0.7,0.8-0.9,1C34,10.2,34.3,9.8,34.7,9.4
		C34.8,9.4,34.7,9.4,34.7,9.4 M32.3,8.8c0.8,0.6,1.3,1.3,1.5,1.6C33.6,10.1,33.1,9.4,32.3,8.8C32.3,8.8,32.3,8.8,32.3,8.8"/>
	<path fill="#00A04E" d="M32.3,8.8c0.8,0.6,1.3,1.3,1.5,1.6c0,0,0,0,0,0c0,0,0,0,0,0c0,0,0,0,0,0c0,0,0,0,0,0l0,0l0,0
		c0.2-0.2,0.4-0.6,0.9-1C34,9,33.2,8.8,32.3,8.8"/>
	<path fill="#00AE56" d="M13,12.9c-0.4,0.8-0.6,1.8-0.6,2.7c0,0,0,0.1,0,0.1c0,1.6,0.5,3.4,1.4,5.2c1.4,0,2.9-0.4,4.1-1.3
		c-0.3-0.2-0.5-0.5-0.7-0.7C15.3,16.9,13.9,14.8,13,12.9"/>
	<path fill="#00A04E" d="M19.7,8.6c0,0-0.1,0-0.1,0c2.4,3,2.3,7.3-0.5,10.1c-0.3,0.3-0.7,0.7-1.1,0.9c2.5,2.4,6.6,5.5,7.9,5.5
		c0,0,0,0,0,0c0.4,0,1.1-0.3,1.9-0.7c-0.5-0.4-0.9-0.8-1.2-1.2c-3.1-3.4-4.7-6.6-4.7-9.4l0,0c0,0,0,0,0-0.1c0,0,0,0,0,0c0,0,0,0,0,0
		c0,0,0,0,0,0c0,0,0,0,0,0c0,0,0,0,0,0c0,0,0,0,0,0c0,0,0,0,0,0c0,0,0,0,0,0l0,0c0-1.6,0.6-3,1.6-4.1C22.5,9.1,21.3,8.7,19.7,8.6
		C19.7,8.6,19.7,8.6,19.7,8.6"/>
	<path fill="#009E4E" d="M19.5,8.6c-2.9,0.1-5.5,1.8-6.6,4.3c0.9,1.9,2.4,3.9,4.3,6c0.2,0.2,0.4,0.5,0.7,0.7
		c0.4-0.3,0.8-0.6,1.1-0.9C21.8,16,22,11.6,19.5,8.6"/>
</g>
</svg>
