<?xml version="1.0" encoding="utf-8"?>
<svg version="1.1" xmlns="http://www.w3.org/2000/svg" xmlns:xlink="http://www.w3.org/1999/xlink" x="0px" y="0px"
   viewBox="0 0 144 20" style="enable-background:new 0 0 144 20;" xml:space="preserve">
<style type="text/css">
  .st0{display:none;}
  .st1{fill:#7D7D7D;}
  .st2{fill:#4285F4;}
  .st3{fill:#EA4335;}
  .st4{fill:#FBBC05;}
  .st5{fill:#34A853;}
</style>
<g id="Layer_2">
  <g>
    <path class="st1" d="M4.2,15.1c-0.6,0-1.1-0.1-1.6-0.4c-0.5-0.3-0.8-0.6-1.1-1H1.4l0.1,1.1v3.5H0V6.9h1.4V8h0.1
      c0.2-0.4,0.6-0.7,1.1-1c0.5-0.3,1-0.4,1.6-0.4c1,0,1.9,0.4,2.7,1.2C7.6,8.7,8,9.7,8,10.9s-0.4,2.2-1.1,3
      C6.1,14.7,5.2,15.1,4.2,15.1z M3.9,13.7c0.7,0,1.3-0.3,1.8-0.8c0.5-0.5,0.7-1.2,0.7-2.1c0-0.9-0.2-1.6-0.7-2.1
      C5.2,8.3,4.6,8,3.9,8C3.2,8,2.6,8.3,2.2,8.8C1.7,9.3,1.4,10,1.4,10.9s0.2,1.6,0.7,2.1C2.6,13.5,3.2,13.7,3.9,13.7z"/>
    <path class="st1" d="M10,7.8c0.8-0.8,1.7-1.2,2.9-1.2s2.2,0.4,2.9,1.2c0.8,0.8,1.1,1.8,1.1,3s-0.4,2.2-1.1,3
      c-0.8,0.8-1.7,1.2-2.9,1.2s-2.2-0.4-2.9-1.2c-0.8-0.8-1.1-1.8-1.1-3S9.2,8.6,10,7.8z M11.1,12.9c0.5,0.5,1.1,0.8,1.8,0.8
      c0.7,0,1.3-0.3,1.8-0.8c0.5-0.5,0.8-1.2,0.8-2.1c0-0.9-0.3-1.6-0.8-2.1C14.2,8.3,13.6,8,12.9,8c-0.7,0-1.3,0.3-1.8,0.8
      c-0.5,0.5-0.8,1.2-0.8,2.1C10.3,11.7,10.6,12.4,11.1,12.9z"/>
    <path class="st1" d="M26.9,14.8h-1.5l-2-6.1l-2,6.1h-1.5l-2.6-7.9h1.6l1.8,6h0l2-6h1.5l2,6h0l1.7-6h1.5L26.9,14.8z"/>
    <path class="st1" d="M33.8,15.1c-1.2,0-2.2-0.4-2.9-1.2c-0.7-0.8-1.1-1.8-1.1-3c0-1.2,0.4-2.1,1.1-3c0.7-0.8,1.7-1.2,2.8-1.2
      c1.2,0,2.1,0.4,2.8,1.1c0.7,0.8,1.1,1.8,1.1,3.1l0,0.3h-6.3c0,0.8,0.3,1.4,0.8,1.9c0.5,0.5,1.1,0.7,1.7,0.7c1.1,0,1.8-0.5,2.2-1.4
      l1.3,0.5C37,13.5,36.6,14,36,14.5C35.4,14.9,34.7,15.1,33.8,15.1z M35.9,9.9c0-0.5-0.2-0.9-0.6-1.3c-0.4-0.4-1-0.6-1.7-0.6
      c-0.5,0-1,0.2-1.4,0.5c-0.4,0.3-0.7,0.8-0.8,1.4H35.9z"/>
    <path class="st1" d="M40.4,14.8h-1.5V6.9h1.4v1.3h0.1c0.2-0.4,0.5-0.8,0.9-1.1s0.9-0.4,1.4-0.4s0.8,0.1,1.1,0.2l-0.6,1.4
      c-0.2-0.1-0.5-0.1-0.8-0.1c-0.5,0-1,0.2-1.4,0.6c-0.4,0.4-0.6,1-0.6,1.7V14.8z"/>
    <path class="st1" d="M47.9,15.1c-1.2,0-2.2-0.4-2.9-1.2c-0.7-0.8-1.1-1.8-1.1-3c0-1.2,0.4-2.1,1.1-3c0.7-0.8,1.7-1.2,2.8-1.2
      c1.2,0,2.1,0.4,2.8,1.1c0.7,0.8,1.1,1.8,1.1,3.1l0,0.3h-6.3c0,0.8,0.3,1.4,0.8,1.9c0.5,0.5,1.1,0.7,1.7,0.7c1.1,0,1.8-0.5,2.2-1.4
      l1.3,0.5c-0.3,0.6-0.7,1.1-1.3,1.5C49.5,14.9,48.7,15.1,47.9,15.1z M50,9.9c0-0.5-0.2-0.9-0.6-1.3C49,8.2,48.4,8,47.7,8
      c-0.5,0-1,0.2-1.4,0.5c-0.4,0.3-0.7,0.8-0.8,1.4H50z"/>
    <path class="st1" d="M56.3,15.1c-1,0-1.9-0.4-2.7-1.2c-0.7-0.8-1.1-1.8-1.1-3s0.4-2.2,1.1-3c0.7-0.8,1.6-1.2,2.7-1.2
      c0.6,0,1.1,0.1,1.6,0.4s0.8,0.6,1.1,1h0.1L59,6.9V3.2h1.5v11.6h-1.4v-1.1H59c-0.2,0.4-0.6,0.7-1.1,1
      C57.5,14.9,56.9,15.1,56.3,15.1z M56.6,13.7c0.7,0,1.3-0.3,1.8-0.8c0.5-0.5,0.7-1.2,0.7-2.1s-0.2-1.6-0.7-2.1
      C57.9,8.3,57.3,8,56.6,8c-0.7,0-1.3,0.3-1.8,0.8c-0.5,0.5-0.7,1.2-0.7,2.1c0,0.9,0.2,1.6,0.7,2.1C55.3,13.5,55.9,13.7,56.6,13.7z"
      />
    <path class="st1" d="M70.1,15.1c-0.6,0-1.1-0.1-1.6-0.4c-0.5-0.3-0.8-0.6-1.1-1h-0.1v1.1h-1.4V3.2h1.5v3.7L67.3,8h0.1
      c0.2-0.4,0.6-0.7,1.1-1s1-0.4,1.6-0.4c1,0,1.9,0.4,2.7,1.2c0.7,0.8,1.1,1.8,1.1,3s-0.4,2.2-1.1,3C72,14.7,71.1,15.1,70.1,15.1z
       M69.8,13.7c0.7,0,1.3-0.3,1.8-0.8c0.5-0.5,0.7-1.2,0.7-2.1c0-0.9-0.2-1.6-0.7-2.1C71.1,8.3,70.5,8,69.8,8c-0.7,0-1.3,0.3-1.8,0.8
      c-0.5,0.5-0.7,1.2-0.7,2.1s0.2,1.6,0.7,2.1C68.5,13.5,69.1,13.7,69.8,13.7z"/>
    <path class="st1" d="M77,18.3h-1.5l1.8-4L74,6.9h1.6l2.4,5.7h0l2.3-5.7H82L77,18.3z"/>
  </g>
  <g>
    <path id="path2998_1_" class="st2" d="M100.1,7.3h-6.6v2h4.7c-0.2,2.7-2.5,3.9-4.7,3.9c-2.7,0-5.1-2.2-5.1-5.2
      c0-3,2.3-5.2,5.2-5.2c2.2,0,3.5,1.4,3.5,1.4l1.4-1.4c0,0-1.8-2-4.9-2c-4.1,0-7.2,3.4-7.2,7.1c0,3.6,3,7.2,7.3,7.2
      c3.8,0,6.6-2.6,6.6-6.5C100.2,7.8,100.1,7.3,100.1,7.3L100.1,7.3z"/>
    <path id="path3000_1_" class="st3" d="M105.4,5.9c-2.7,0-4.6,2.1-4.6,4.6c0,2.5,1.9,4.6,4.7,4.6c2.5,0,4.6-1.9,4.6-4.6
      C110.1,7.4,107.7,5.9,105.4,5.9L105.4,5.9z M105.5,7.7c1.3,0,2.6,1.1,2.6,2.8c0,1.7-1.3,2.8-2.6,2.8c-1.5,0-2.6-1.2-2.6-2.8
      C102.8,8.9,104,7.7,105.5,7.7L105.5,7.7z"/>
    <path id="path3005_1_" class="st4" d="M115.5,5.9c-2.7,0-4.6,2.1-4.6,4.6c0,2.5,1.9,4.6,4.7,4.6c2.5,0,4.6-1.9,4.6-4.6
      C120.1,7.4,117.7,5.9,115.5,5.9L115.5,5.9z M115.5,7.7c1.3,0,2.6,1.1,2.6,2.8c0,1.7-1.3,2.8-2.6,2.8c-1.5,0-2.6-1.2-2.6-2.8
      C112.9,8.9,114,7.7,115.5,7.7L115.5,7.7z"/>
    <path id="path3007_1_" class="st2" d="M125.4,5.9c-2.5,0-4.4,2.2-4.4,4.6c0,2.8,2.3,4.6,4.4,4.6c1.3,0,2-0.5,2.5-1.1v0.9
      c0,1.6-1,2.5-2.4,2.5c-1.4,0-2.1-1-2.4-1.6l-1.8,0.7c0.6,1.3,1.9,2.7,4.1,2.7c2.5,0,4.3-1.6,4.3-4.8V6.2h-1.9v0.8
      C127.3,6.3,126.5,5.9,125.4,5.9L125.4,5.9z M125.6,7.7c1.2,0,2.5,1,2.5,2.8c0,1.8-1.2,2.8-2.5,2.8c-1.3,0-2.5-1.1-2.5-2.8
      C123,8.7,124.3,7.7,125.6,7.7L125.6,7.7z"/>
    <path id="path3011_1_" class="st3" d="M138.4,5.9c-2.3,0-4.3,1.9-4.3,4.6c0,2.9,2.2,4.6,4.5,4.6c1.9,0,3.1-1.1,3.9-2l-1.6-1.1
      c-0.4,0.6-1.1,1.3-2.3,1.3c-1.3,0-1.9-0.7-2.3-1.4l6.2-2.6l-0.3-0.8C141.6,7.1,140.2,5.9,138.4,5.9L138.4,5.9z M138.5,7.6
      c0.8,0,1.4,0.4,1.7,1l-4.1,1.7C135.9,9,137.1,7.6,138.5,7.6L138.5,7.6z"/>
    <path id="path3015_1_" class="st5" d="M131.1,14.8h2V1.2h-2V14.8z"/>
  </g>
</g>
</svg>
